<?xml version="1.0" encoding="utf-8"?>
<!-- Generator: Adobe Illustrator 19.1.0, SVG Export Plug-In . SVG Version: 6.00 Build 0)  -->
<!DOCTYPE svg PUBLIC "-//W3C//DTD SVG 1.1//EN" "http://www.w3.org/Graphics/SVG/1.1/DTD/svg11.dtd">
<svg version="1.1" id="Layer_1" xmlns="http://www.w3.org/2000/svg" xmlns:xlink="http://www.w3.org/1999/xlink" x="0px" y="0px"
	 viewBox="0 0 400 400" enable-background="new 0 0 400 400" xml:space="preserve">
<g>
	<g>
		<path fill="#387394" d="M306.5,134.9c0,0,0.2,0.2,0.6,0.6c0.3,0.3,0.6,0.6,0.9,1c0.3,0.3,0.6,0.7,1,1.2c0.5,0.7,1.2,1.5,2,2.5
			c0.1,0.2,0.3,0.3,0.4,0.5c0.2,0.2,0.4,0.4,0.6,0.7c0.2,0.2,0.4,0.4,0.6,0.7c0.2,0.2,0.3,0.4,0.5,0.6c0.3,0.4,0.6,0.8,0.9,1.2
			c1.2,1.5,2.2,2.9,2.9,3.8c0.7,0.9,2.4,2.5,4.5,5.3l0.4,0.6l0.3,0.4c0.2,0.3,0.4,0.6,0.7,1c0.4,0.6,0.8,1.2,1.1,1.8
			c0.6,1,1.3,2,1.9,3.1l0.2,0.3l0.2,0.3l0.1,0.1l0.1,0.2c0.2,0.3,0.3,0.6,0.5,0.8c0.3,0.6,0.7,1.1,1,1.7c0.8,1.3,1.6,2.7,2.4,4
			c1.2,2.3,2.4,4.7,3.7,7.2c0.4,0.7,1.3,2,2.5,4.1c0.3,0.5,0.6,1.1,0.9,1.7l0.2,0.5l0.2,0.4l0.1,0.1l0.4,0.9
			c0.3,0.7,0.5,1.3,0.6,1.8c0.2,0.6,0.3,1.1,0.4,1.5c0.2,0.7,0.3,1.5,0.5,2.2l0.1,0.6l0,0.2c0.1,0.2-0.1-0.2-0.1-0.1l0,0.1l0.1,0.1
			c0,0.1,0.1,0.2,0.1,0.2l0,0c0,0,0,0.1,0,0.1c0,0.1,0.1,0.2,0.1,0.3c0.1,0.2,0.2,0.5,0.4,0.8c0.3,0.7,0.8,1.6,1.3,2.7
			c0.3,0.6,0.6,1.2,0.8,2c0.1,0.4,0.3,0.8,0.4,1.2c0,0,0.2,0.6,0.1,0.4l0,0.1l0,0.2l0.1,0.3c0.2,0.8,0.4,1.6,0.7,2.5
			c0.5,1.8,1,3.6,1.6,5.5c0.4,1.7,0.9,3.4,1.4,5l0.2,0.6l0.1,0.3l0,0.2l0,0.1l0.1,0.5c0.1,0.2,0.1,0.4,0.2,0.8l0.2,1
			c0.2,1.2,0.4,2.2,0.6,3.1c0.2,0.9,0.3,1.7,0.5,2.3l0.1,0.4l0.2,0.8l0.4,1.8c0.2,1,0.4,2,0.6,2.9c0.1,0.4,0.2,0.8,0.3,1.2l0.1,0.5
			l0.1,0.3l0,0.1l0,0.1c0-0.2,0,0,0,0l0.1,0.3c0,0.1,0,0.1,0.1,0.1c0,0,0.1,0.3,0.1,0.4l0.3,1.1c0.3,0.8,0.6,1.8,0.9,3.1
			c0.2,0.6,0.3,1.3,0.4,2l0.2,1c0,0.2,0.1,0.4,0.1,0.6l0.6,2.6c0.2,1,0.4,2.1,0.6,3.2l0.1,0.9l0,0.2l0,0.1c0,0,0,0.5,0,0.3l0,0.3
			c0,0.3,0.1,1.1,0.1,1.4l0,1.1c0,2.8-0.1,4.5,0,4.9c0.1,0.5,0.4,2,0.6,4.7c0.1,0.7,0.1,1.4,0.1,2.3l0,0.6l0,0.3l0,0.6l0,0.7
			c0,0.9-0.1,1.8-0.2,2.8l-0.2,2.7l-0.2,1.9l-0.1,1.1l-0.2,1c-0.5,2.6-0.9,4.3-1.1,5.2l-0.3,1.6l-0.3,1.3c-0.2,0.9-0.4,1.8-0.6,2.6
			l-0.3,1.3l-0.1,0.7l0,0.1c0,0.1,0-0.2-0.1,0.3l0,0.2l-0.1,0.3c-0.2,0.5-0.4,1.4-0.6,2.2c-0.3,1-0.5,2-0.8,3
			c-0.2,0.6-0.3,1.2-0.5,1.8l-0.1,0.2c0-0.1-0.1,0.3-0.1,0.3l0,0.1l-0.1,0.3c-0.1,0.4-0.3,1-0.4,1.3c-1.1,2.8-2.1,4.4-2.5,5.1
			l-0.1,0.2l-0.1,0.1l0,0c0-0.1,0,0,0,0l-0.1,0.2l-0.4,1c-0.3,0.8-0.6,1.6-0.9,2.4c-0.3,0.9-0.6,1.9-1.1,2.9l-0.3,0.8l-0.1,0.3
			l-0.1,0.1l-0.1,0.3c-0.3,0.6-0.5,1.1-0.7,1.6c-0.9,1.9-1.6,3.4-2.2,4.6l-0.4,0.9l-0.3,0.8c-0.2,0.6-0.5,1.4-0.8,2.2
			c-0.3,0.9-0.7,1.8-1.1,2.8l-0.4,0.8l-0.4,0.8l-0.4,0.8l-0.4,0.7c-1,1.8-1.8,3.1-2.4,4.2c-1.5,2.6-2.9,5.1-4.2,7.5
			c-1.6,2.6-3.2,5-4.6,7.4c-0.8,1.4-2.2,4-4.2,6.8c-2,2.7-3.5,4.3-4.4,5.5c-0.6,0.8-1.2,1.5-1.8,2.3c-0.5,0.7-1.1,1.4-1.5,2
			c-0.5,0.6-1,1.3-1.4,1.8l-0.2,0.2l-0.1,0.1l0,0.1l-0.2,0.3c-0.1,0.1-0.2,0.3-0.3,0.4c-0.2,0.2-0.3,0.5-0.5,0.7
			c-0.8,1-1.5,1.9-2,2.6c-0.6,0.8-1.2,1.4-1.6,1.9c-0.4,0.5-0.6,0.7-0.6,0.7l-0.4,0.4c-4.7,5.5-13,6.1-18.5,1.4
			c-5.5-4.7-6.1-13-1.4-18.5c0.5-0.6,1.2-1.2,1.8-1.7c0,0,0.1-0.1,0.4-0.3c0.2-0.2,0.6-0.5,1.1-1c0.5-0.5,1.2-1.2,2.2-2.1
			c0.3-0.3,0.5-0.5,0.8-0.8c0.1-0.1,0.3-0.2,0.4-0.4l0,0c-0.3,0.4-0.1,0.1-0.2,0.2l0,0l0.1-0.1l0.2-0.2c0.5-0.5,1-1.1,1.6-1.7
			c2.1-2.2,4.6-4.9,7.4-8c0.8-0.8,1.7-2.4,3.6-5.3c0.3-0.5,0.6-0.9,1-1.4c0.4-0.5,0.7-1.1,1.1-1.6c0.4-0.6,0.7-1.1,1.1-1.7l0.6-0.9
			l0.3-0.4l0.1-0.2l0.1-0.1c0.3-0.5-0.3,0.6-0.3,0.4l0-0.1c1.4-2.4,2.9-4.8,4.4-7.5c0.9-1.5,1.6-2.7,2.1-3.7l0.3-0.6l0.1-0.3
			c-0.1,0.2,0,0,0,0.1l0,0l0-0.1l0.1-0.3c0.2-0.4,0.4-0.9,0.6-1.6c0.3-0.8,0.5-1.5,0.8-2.3c0.2-0.5,0.3-0.9,0.5-1.5l0.5-1.4
			c0.7-1.8,1.3-3.2,1.7-4.4c0.1-0.3,0.2-0.6,0.2-0.8l0.1-0.3l0-0.2c0,0,0,0.1,0,0l0,0l0.1-0.4c0.1-0.5,0.3-1.2,0.4-1.9
			c0.2-0.8,0.3-1.7,0.5-2.5l0.3-1.5l0-0.2l0.1-0.3l0.1-0.5l0.3-1c0.8-2.5,1.3-4,1.3-4.6c0-0.1-0.1,0-0.1,0l0.1-0.3l0-0.1
			c0-0.1-0.1,0.3,0,0.1l0-0.1l0.1-0.8c0.1-0.7,0.1-1.5,0.2-2.2c0.1-0.9,0.2-1.8,0.3-3l0-0.3l0-0.2c-0.1,0.5,0,0.1,0,0.2l0-0.1
			l0.1-0.7l0.1-1.3c0.1-0.9,0.2-1.8,0.3-2.7c0.1-0.8,0.2-1.6,0.3-2.5c0.4-2.7,0.8-4.5,0.9-5.5l0.1-0.4l0-0.1l0,0l0-0.2l0-0.2l0-0.1
			c0-0.5,0,0.6,0,0.4l0-0.3l0.1-0.7l0.3-2.7c0.1-0.9,0.2-1.8,0.3-2.7l0.1-0.7l0-0.1c0-0.1,0,0.6,0,0.3l0,0c0,0,0,0,0,0
			c0-0.1,0-0.3,0-0.5c0.1-1-0.2-3.1-0.1-6.3c0.2-3.3,0.7-5.3,0.8-6.2l0.1-0.3c0-0.2,0,0.1,0.1,0l0-0.3c0-0.2,0,0.2,0,0.1l0-0.1
			l0-0.1l0-0.5c0-0.6,0-1.4,0-2.2l-0.1-2.8l0-0.8l0-0.2c0,0,0-0.1,0-0.1l0,0l0-0.1c0-0.2,0-0.4,0-0.7c0-0.6-0.1-1.3-0.2-2.3
			l-0.2-1.6l-0.1-1l-0.1-0.5l0-0.3c0-0.1,0,0.1,0-0.2l0-0.1l0-0.2l0-0.4l0-0.8l-0.1-1.5c0-0.8-0.1-1.6-0.1-2.4l-0.1-0.9
			c0,0-0.1-0.4,0-0.5l-0.1-0.9c-0.1-1.2-0.3-2.2-0.3-3c-0.1-0.9-0.1-1.6-0.2-2.1l0-0.3c0,0,0-0.3-0.1-0.5c-0.1-0.4,0.1,0.4,0.1,0.3
			l0-0.1l0-0.2l-0.1-0.3l-0.2-0.6c-0.4-1.7-0.9-3.4-1.4-5l-0.2-0.6l0-0.2c0.1,0.2-0.2-0.6,0.1,0.4l0-0.1l-0.1-0.3l-0.4-1.2
			c-0.3-0.8-0.6-1.6-0.9-2.4c-0.3-0.8-0.6-1.6-0.9-2.4l-0.1-0.3l-0.1-0.1l0-0.1c-0.1-0.3,0.1,0.3,0.1,0.2c0,0,0,0-0.1,0
			c0,0-0.1-0.1-0.2-0.3c-0.2-0.3-0.6-0.8-1.1-1.6c-0.2-0.4-0.5-0.8-0.8-1.3l-0.5-0.8l-0.3-0.5l-0.3-0.6l-0.2-0.4l-0.1-0.1l0-0.1
			l-0.1-0.3l-0.4-0.9c-0.3-0.6-0.5-1.1-0.6-1.7c-0.3-0.8-0.6-1.6-0.9-2.4c-0.5-1.3-0.5-1.1-0.8-1.6c-0.4-0.6-1.3-1.7-2.4-3.5
			l-0.5-0.8l-0.4-0.7l-0.5-0.8c-0.4-0.6-0.7-1.3-1.1-1.9c-0.7-1.2-1.4-2.5-2.1-3.7c-0.1-0.1,0.6,1,0.3,0.5l0-0.1l-0.1-0.1l-0.1-0.2
			l-0.3-0.4l-0.6-0.9c-0.4-0.6-0.7-1.1-1.1-1.7c-0.4-0.6-0.7-1.1-1.1-1.6l-0.5-0.8l-0.1-0.2l-0.1-0.1c-0.2-0.2,0.2,0.3,0.1,0.2
			l0-0.1l-0.3-0.5c-0.7-1.1-1.4-2.1-2.1-3.1c-0.3-0.4-0.5-0.8-0.8-1.2l-0.3-0.4l-0.2-0.3c0,0-0.1-0.1-0.1-0.1
			c-0.6-0.8-2-2.1-3.8-4.1c-1.8-2-2.9-3.6-3.7-4.6c-0.2-0.2-0.4-0.5-0.6-0.7c-0.1-0.2-0.3-0.3-0.4-0.4c-0.3-0.3-0.6-0.6-0.8-0.9
			c-0.3-0.3-0.6-0.7-0.9-1c-0.8-1-1.5-1.8-2-2.5c-0.2-0.2-0.3-0.4-0.5-0.6c-0.1-0.1-0.2-0.2-0.2-0.2c-0.2-0.2-0.3-0.3-0.3-0.3
			l-0.1-0.1c-5-5.2-4.9-13.4,0.3-18.4S301.4,129.7,306.5,134.9L306.5,134.9z"/>
	</g>
	<g>
		<path fill="#387394" d="M271,170.3c0,0,0.1,0.1,0.3,0.3c0.1,0.2,0.3,0.4,0.6,0.6c0.2,0.2,0.4,0.5,0.7,0.7c1,1.1,2.2,2.6,3.4,4.2
			c0.2,0.2,0.4,0.4,0.5,0.7c0.3,0.3,0.5,0.6,0.8,1c0.5,0.6,0.9,1.2,1.4,1.9c0.7,1,1.5,2.2,2.4,3.4c0.5,0.8,1.5,1.9,2.8,3.7
			c0.3,0.4,0.7,0.9,1.1,1.5c0.2,0.3,0.4,0.6,0.6,0.9l0.5,0.8c0.7,1.1,1.2,2,1.7,2.9c0.5,0.9,0.9,1.8,1.4,2.7
			c0.2,0.4,0.4,0.9,0.7,1.3l0.4,0.9l0.4,0.8c1.1,2.2,1.8,4.2,2.6,6c0.4,1,0.9,2,1.3,3.1c0.2,0.6,0.5,1.2,0.7,1.8l0.4,1l0.4,1.1
			l0.3,1.1l0.3,1.1c0.2,0.7,0.4,1.3,0.5,2c0.3,1.2,0.6,2.3,0.8,3.2c0.5,1.7,1.4,4.1,2.2,7.3l0.3,1.2l0.3,1.4
			c0.2,0.8,0.3,1.6,0.4,2.3c0.2,1.4,0.4,2.5,0.7,3.4l0,0.2l0,0.1c0,0.1,0-0.1,0-0.1l0,0.1c0,0.1,0.1,0.3,0.1,0.4
			c0,0.1,0.1,0.3,0.2,0.5l0.5,1.6c0.4,1.2,0.9,2.9,1.2,5.1l0.1,0.4c0.1,1,0,0.3,0,0.5l0,0.1l0,0.1l0.1,0.5l0.1,0.9l0.2,1.8
			c0.2,1.2,0.3,2.4,0.4,3.7c0-0.2,0,1.9,0,1l0,0.1l0,0.1l0,0.2l0,0.5l0,0.9c0,0.6,0,1.2,0,1.8c0,0.6,0,1.2,0,1.8l0,0.9l0,0.5l0,0.2
			l-0.1,1.1l0,0.1l0,0.1c-0.1,1.2-0.3,2.4-0.5,3.6c-0.1,0.6-0.2,1.2-0.3,1.8l-0.4,2.4c-0.2,1-0.4,1.8-0.6,2.6
			c-0.2,0.8-0.4,1.5-0.6,2.1l-0.5,1.7l-0.2,0.7l-0.1,0.3l0,0c-0.2,1-0.1,0.3-0.1,0.5l0,0.1l-0.1,0.2c-0.4,1.1-0.7,2.2-1.1,3.4
			c-0.2,0.6-0.4,1.1-0.6,1.7l-0.3,0.8l-0.1,0.4l0,0.1c0,0.2,0.1-0.3-0.1,0.4l0,0.1l-0.1,0.2c-0.6,1.1-1.2,3.7-2.6,7.3
			c-0.3,0.7-0.8,1.9-1.2,2.5c-0.4,0.7-0.8,1.4-1.1,1.9c-0.5,0.8-1,1.6-1.5,2.4l-0.2,0.3l-0.4,0.7c-0.2,0.4-0.5,0.9-0.7,1.4
			c-0.5,1-1.1,2.1-1.6,3.1c-1,1.9-2,3.7-3,5.5c-0.5,0.9-1.1,1.9-1.7,2.9l-0.5,0.8l-0.5,0.8c-0.3,0.5-0.6,0.9-0.9,1.4
			c-1.2,1.7-2.2,2.9-2.9,4c-0.6,0.9-1.3,2-2.1,3.3c-0.4,0.6-0.9,1.3-1.3,2c-0.2,0.3-0.5,0.7-0.8,1c-0.1,0.2-0.3,0.3-0.4,0.5
			l-0.3,0.3l0,0l0,0l-0.1,0.1l-0.1,0.2c-1.3,1.7-2.3,3.1-3,4c-0.7,0.9-1,1.5-1,1.5c-4,6-12.2,7.7-18.3,3.6c-6-4-7.7-12.2-3.6-18.3
			c0.8-1.1,1.7-2.1,2.7-2.9l0.2-0.1c0,0,0.5-0.4,1.4-1.1c0.9-0.8,2.2-1.9,3.7-3.3l0.2-0.1l0.1-0.1l0,0l0,0c0.3-0.3-0.3,0.4-0.3,0.3
			l0.1-0.1c0.1-0.1,0.2-0.2,0.3-0.3c0.2-0.3,0.5-0.6,0.9-1c0.7-0.8,1.6-2.1,2.8-3.6c1.1-1.4,2.1-2.6,2.9-3.6
			c0.2-0.2,0.4-0.5,0.5-0.7c0.1-0.1,0.1-0.1,0.2-0.3l0.2-0.4c0.3-0.5,0.7-1.1,1-1.8c0.4-0.8,0.8-1.6,1.2-2.4
			c0.2-0.4,0.5-0.9,0.7-1.3c0.2-0.3,0.3-0.7,0.5-1c0.3-0.7,0.7-1.5,1-2.4c0.2-0.4,0.4-0.9,0.6-1.4l0.3-0.8l0.5-1.1
			c0.6-1.4,1.2-2.5,1.5-3.3c0.2-0.4,0.3-0.7,0.4-1c0.1-0.3,0-0.2,0.1-0.5c0-0.3,0.1-0.9,0.2-1.9c0.1-1,0.3-2.2,0.6-3.9l0-0.2l0-0.1
			c-0.2,0.7,0,0.2-0.1,0.3l0-0.1l0.1-0.4l0.1-0.9c0.1-0.6,0.2-1.2,0.3-1.7c0.2-1.2,0.4-2.3,0.6-3.5l0-0.2l0-0.1
			c0,0.2,0.1-0.5-0.1,0.4l0-0.1l0.1-0.6l0.2-1l0.3-1.8l0.2-1.4c0.1-0.4,0.1-0.8,0.1-1l0-0.2l0-0.1c-0.2,1.2,0,0.3-0.1,0.6l0-0.1
			l0-0.5l0.1-0.9c0.1-0.6,0.1-1.2,0.2-1.8c0.1-1.2,0.3-2.4,0.4-3.6l0-0.1l0-0.1c-0.1,2,0,0.5-0.1,0.9l0-0.2l0-0.5l0.1-0.9
			c0-0.6,0.1-1.2,0.1-1.8c0-0.6,0.1-1.2,0.2-1.8l0.1-0.9l0.1-0.5l0-0.2l0-0.1l0-0.1c0-0.9,0,1.2,0,0.9c0.1-1.2,0.2-2.5,0.3-3.7
			l0.2-1.8l0.1-0.9l0-0.5l0-0.1l0-0.1c0,0.2,0-0.5,0,0.4l0-0.1c0.1-0.3,0.2-1,0-2.2l-0.2-2l-0.2-1.3l-0.1-1.2
			c-0.1-1.6-0.1-2.8-0.2-3.8l-0.1-1.3l0-0.3l0-0.1l-0.1-0.4c0,0,0,0.2,0,0.1l0,0l0-0.1l0-0.1c-0.2-1.4-0.9-3.5-1.7-6.2
			c-0.3-1.1-0.7-2.3-1-3.4c-0.1-0.5-0.3-0.9-0.4-1.3l-0.2-0.5l-0.2-0.5c-0.2-0.3-0.3-0.7-0.5-1c-0.2-0.4-0.4-0.8-0.6-1.2
			c-0.5-0.9-0.9-1.8-1.4-2.8c-1-2.1-1.8-3.9-2.6-5.2c-0.2-0.3-0.3-0.6-0.5-0.9c-0.2-0.4-0.5-0.8-0.7-1.2c-0.4-0.8-0.9-1.5-1.3-2.3
			c-0.4-0.6-0.8-1.3-1.1-1.7l-0.2-0.3c0,0,0-0.1-0.1-0.1l-0.2-0.2c-0.2-0.2-0.3-0.4-0.5-0.6c-0.7-0.9-1.9-2.1-3.1-3.7
			c-0.9-1.2-1.8-2.3-2.6-3.4c-0.3-0.4-0.6-0.8-0.9-1.1c-0.3-0.3-0.6-0.6-0.9-0.9c-1.6-1.8-2.5-2.8-3.1-3.4c-0.1-0.1-0.3-0.3-0.4-0.4
			c-0.1-0.1-0.2-0.1-0.2-0.2c-0.2-0.2-0.3-0.3-0.3-0.3c-5.2-5-5.4-13.2-0.4-18.4c5-5.2,13.2-5.4,18.4-0.4
			C270.6,169.9,270.8,170.1,271,170.3z"/>
	</g>
	<g>
		<path fill="#387394" d="M235.4,205.9c0,0,0,0.1,0.1,0.2c0,0.1,0.1,0.1,0.2,0.2c0.1,0.1,0.2,0.3,0.3,0.4c0.4,0.6,1.1,1.4,1.9,2.5
			c0.8,1.1,1.8,2.4,2.8,3.9c0.2,0.4,0.5,0.7,0.7,1.1c0.3,0.4,0.5,0.8,0.8,1.2c0.6,0.8,1.1,1.7,1.7,2.7c0.6,1,1.3,2.1,1.9,3.2
			c0.7,1.2,1.3,2.4,1.8,3.7c0.6,1.2,1.1,2.5,1.6,3.7c0.2,0.6,0.5,1.2,0.8,1.8c0.3,0.6,0.5,1.3,0.8,1.9c0.5,1.3,1,2.7,1.5,4.2
			c0.2,0.7,0.4,1.5,0.7,2.2c0.2,0.7,0.4,1.4,0.6,2.2c0.7,2.9,1.2,5.9,1.4,9.4l0,0.5l0,0.7l0,1.2c0,0.8-0.1,1.6-0.1,2.4
			c-0.1,1.6-0.3,3.1-0.5,4.5c-0.1,0.6-0.2,1.3-0.3,1.9c-0.1,0.7-0.2,1.4-0.3,2c-0.2,1.4-0.6,3-1.1,4.6c-0.1,0.4-0.3,0.8-0.4,1.3
			l-0.2,0.7l-0.1,0.4c-0.3,1-0.6,1.7-0.9,2.4c-0.6,1.4-1.2,2.7-1.8,3.8c-0.6,1.1-1.1,2.1-1.6,3c-0.5,1-1.1,1.9-1.7,2.9
			c-0.6,1-1.2,2-1.9,2.9c-0.3,0.5-0.7,1-1,1.4c-0.2,0.2-0.4,0.5-0.6,0.7c-0.1,0.2-0.3,0.3-0.4,0.5c-1.3,1.6-2.4,2.7-3.4,3.7
			c-1,1-1.7,1.7-2.3,2.1c-0.5,0.5-0.8,0.7-0.8,0.7c-5.5,4.7-13.7,4.1-18.4-1.4c-4.1-4.7-4.1-11.6-0.5-16.4l0.5-0.6
			c0,0,0.6-0.8,1.5-2.1c0.4-0.6,1-1.5,1.5-2.3c0.1-0.1,0.2-0.3,0.3-0.4c0,0,0.1-0.2,0.1-0.2c0.1-0.2,0.2-0.4,0.3-0.6
			c0.2-0.4,0.5-1,0.8-1.6c0.3-0.7,0.7-1.4,1-2.1c0.4-0.9,0.8-1.7,1.2-2.5c0.3-0.8,0.6-1.5,0.9-2.1c0.1-0.3,0.2-0.6,0.3-0.8l0.1-0.4
			l0,0c0,0-0.1,0.2,0,0.1l0,0l0,0l0-0.1l0.1-0.4c0.1-0.6,0.3-1.3,0.5-2.2c0.1-0.5,0.2-1,0.3-1.5c0.1-0.5,0.2-1.1,0.3-1.6
			c0.2-1,0.3-1.9,0.4-2.7l0.1-1.3l0.1-0.6l0-0.2l0-0.5c0.1-1.4,0.2-3.3,0.2-5.2l0-0.4l0-0.1c0,0.1,0,0,0,0l0-0.2l0-0.6
			c0-0.4,0-0.9-0.1-1.3c-0.1-0.9-0.2-1.7-0.3-2.6l-0.1-0.6l-0.2-0.7c-0.1-0.5-0.2-0.9-0.3-1.4c-0.2-0.9-0.5-1.7-0.7-2.4
			c-0.2-0.7-0.5-1.3-0.8-1.9c-0.3-0.6-0.6-1.2-1-1.7c-0.4-0.6-0.8-1.1-1.2-1.7c-0.2-0.3-0.4-0.5-0.6-0.8c-0.2-0.3-0.4-0.5-0.6-0.8
			c-0.8-0.9-1.5-1.6-2.1-2.1c-0.6-0.5-1.1-0.9-1.4-1.1c-0.1,0-0.1-0.1-0.2-0.1c-0.1-0.1-0.2-0.1-0.2-0.2c-0.1-0.1-0.2-0.1-0.2-0.1
			c-6-4.2-7.4-12.4-3.2-18.4c4.2-6,12.4-7.4,18.4-3.2C233.4,203.5,234.5,204.6,235.4,205.9z"/>
	</g>
</g>
<g>
	<path fill="#387394" d="M47.3,20.5l0.3,0.1c0.1,0,0.2,0.1,0.4,0.1l1,0.3c0.6,0.2,1.1,0.4,1.6,0.6c1,0.4,1.8,0.7,2.6,1l1.8,0.8
		c0.2,0.1,0.6,0.2,0.9,0.4l1.1,0.4c1.6,0.6,3.3,1.2,5.1,1.9l1.2,0.5l0.9,0.4l2.2,0.9c1.7,0.7,3.6,1.5,5.9,2.8c2.1,1.2,3.6,2.3,4.7,3
		l0.7,0.5l0.8,0.4l2,1.1c1.4,0.8,3.1,1.8,5,3.1c1.7,1.2,3.3,2.4,4.5,3.4l1.7,1.4l0.2,0.1c0.1,0.1-0.1-0.1-0.1-0.1l0,0l0.1,0l0.1,0.1
		c0.2,0.2,0.1,0.1,0.2,0.1c0.1,0.1,0.3,0.2,0.5,0.3c0.9,0.6,2.7,1.5,4.9,3.3c0.3,0.2,0.6,0.5,0.9,0.7l0.2,0.2l0.1,0l0.3,0.2l0.1,0
		l0.2,0.2l0.1,0l0.1,0.1l0.3,0.3l0.5,0.5l0.7,0.8c0.9,1,1.6,1.9,2.1,2.5c0.5,0.6,0.9,1,1.1,1.1c0.1,0.1,0.2,0.1,0.2,0l0,0l0,0
		c-0.2-0.2,0,0-0.1-0.1l0.1,0.1l0.2,0.2c0.1,0,0.1,0,0.2,0.1c0.8,0.5,2.2,1.4,4,2.9c0.4,0.4,0.9,0.8,1.4,1.2l0.4,0.4l0.2,0.2
		l0.1,0.1l0,0c0,0,0.3,0.3,0.2,0.2l0.2,0.2l0.1,0.1l0.2,0.2l1.4,1.6l1.1,1.3c1.3,1.5,2.1,2.3,2.6,2.4c0.9,0.6,2,1.6,3.4,3
		c0.7,0.7,1.5,1.5,2.3,2.4l0.2,0.2l0.1,0.1l0,0c0.2,0.3-0.2-0.3-0.1-0.2l0.2,0.2l0.1,0.1c0,0,0-0.1,0-0.1l-0.1-0.2
		c0-0.1,0.1-0.1,0.2,0c0.3,0.2,0.9,0.6,1.6,1.3c0.8,0.7,1.8,1.8,3,3.2c0.3,0.4,0.6,0.8,0.9,1.2l0.2,0.3l0.1,0.1c0,0,0.2,0.3,0.1,0.2
		l0,0.1l0.2,0.2l1,1.5c0.6,0.9,1.1,1.7,1.5,2.4l1.1,1.8l0.4,0.6l0.7,1.3c0.8,1.3,1.5,2.7,2.2,4.1l0.5,1l0.6,1.1l0.4,0.8l0.3,0.8
		l0.2,0.6l0.4,1c0.2,0.6,0.4,1.2,0.6,1.7c0.3,1,0.5,1.7,0.6,2c0.1,0.2,0.1,0.3,0.1,0.3c0,0,0,0,0,0l0,0l0,0l0,0c0,0.1,0-0.1,0-0.1
		l0.1,0.1c0.3,1,0.9,2.3,1.7,4c0.4,0.9,0.7,1.8,1.1,2.9l0.1,0.2l0,0.1l0.1,0.2l0.1,0.3l0.3,0.9c0.2,0.6,0.3,1.1,0.5,1.6
		c0.6,2,0.9,3.4,1,4.4l0.1,0.3l0,0l0,0c-0.1-0.2,0.2,0.4-0.2-0.4l0,0.1l0.1,0.3l-0.2-0.4c-0.1-0.1-0.2-0.3-0.2-0.3
		c-0.1,0-0.1-0.1-0.1-0.1c-0.1,0,0,0.5,0.4,1.3c0.4,0.8,1,2,1.8,3.6c0.2,0.4,0.4,0.8,0.6,1.3c0.2,0.4,0.4,1,0.5,1.5l0.1,0.2
		c0-0.1,0.1,0.2,0.1,0.2l0,0l0,0.1l0.1,0.3c0.1,0.3,0.2,0.7,0.2,0.9c0.5,2.2,0.7,3.8,0.8,5l0.1,0.8l0,0.2l0,0.1l0,0l0,0
		c0,0,0.1,0.4,0.1,0.3l0.1,0.3l0,0.1l0.1,0.3l0.2,0.7l0.1,0.5l0.2,0.9c0.1,0.6,0.2,1.1,0.2,1.6c0.2,1.9,0.2,3,0.1,3.2l-2.3-4.5
		c0.1,0.3,0.2,0.5,0.2,0.6c0,0.1-0.1,0.1-0.2,0.1c-0.1,0,0.1,0.3,0.6,0.8c0.5,0.5,1.1,1.1,1.6,1.7c0.5,0.6,1,1.1,1.3,1.5l0.7,0.9
		c0.2,0.3,0.4,0.5,0.7,0.8l1.3,1.3c0.5,0.5,0.9,1,1.3,1.5l0.3,0.3l0.1,0.2l0.1,0.1c0,0-0.1-0.1,0,0l0,0l0,0c0.1,0.2,0.4,0.4,0.4,0.5
		c0.1,0.2,0.4,0.5,0.5,0.6c0.2,0.2,0.4,0.4,0.8,0.8c0.4,0.4,1,1,1.5,1.5l1.4,1.5l2.1,2.2l2.1,2.2l2.2,2.2l2.2,2.1l1.1,1l0.6,0.5
		l0.7,0.7c0.7,0.7,1.3,1.4,2,2.1c0.6,0.8,1.2,1.6,1.5,1.9c0.3,0.3,0.3,0.2,0.3,0.2c0,0,0.2,0,0.3,0.2l0.1,0.1l0,0
		c-0.1-0.1,0.2,0.2-0.2-0.2l0,0l0.1,0.1l0.1,0.1l0.1,0.1l0.1,0.1c0,0,0,0,0,0c0,0,0-0.1-0.1-0.1c0-0.1,0-0.1-0.1-0.1l-0.1-0.2
		c-0.1-0.1,0.1-0.1,0.9,0.4c0.8,0.5,1.9,1.2,2.8,1.9c0.9,0.7,1.6,1.3,2.2,1.9l0.1,0.1c0.4,0.4,0.1,0.1,0.2,0.2l0,0l0.1,0.1l0.1,0.1
		l0.1,0.1l0.1,0.1l0.2,0.2c0.5,0.5,0.9,1,1.3,1.4c0.8,0.9,1.6,2.1,2.2,3.1c0.3,0.5,0.5,0.9,0.6,1c0.1,0.1,0.1,0.2,0.1,0.2l0,0
		c0,0,0,0,0-0.1c0-0.2-0.2-0.5-0.3-0.6c0,0,0-0.1,0-0.1l0,0l0,0l0,0c-0.2-0.2,1.5,1.8,0.8,0.9l0.1,0.1l0.1,0.1l0.2,0.2l0.3,0.4
		l0.6,0.8c0.3,0.4,0.7,0.9,1,1.4c0.6,1,1.2,2,1.7,3.1c1,2.2,1.7,4.4,2.1,6.3l0.3,1.6c0.1,0.5,0.2,1.2,0.4,2.1
		c0.2,1.7,0.6,4.2,0.1,7.6c-0.1,0.8-0.3,1.7-0.5,2.6c-0.1,0.4-0.3,0.9-0.4,1.3l-0.1,0.3l-0.3,0.7l-0.1,0.2l-0.1,0.2l-0.4,0.8
		l-0.4,0.8l-0.3,0.6c-0.4,0.7-0.8,1.4-1.2,2c-1.7,2.5-3.4,3.9-4.5,5c-0.6,0.5-1.1,0.9-1.5,1.2l-1.7,1.3c-1.6,1.2-3.5,2.4-5.7,3.4
		c-1.1,0.5-2.2,0.9-3.3,1.2c-0.6,0.2-1.1,0.3-1.7,0.4c-0.3,0.1-0.6,0.1-0.8,0.2l-0.4,0.1l-0.1,0l-0.1,0c0.5-0.1,0.1,0,0.2-0.1
		l-0.1,0l-0.4,0.1c-0.1,0,0,0,0,0l0.1,0l0.1,0c0.2-0.1,0.2-0.1,0.4-0.2c0.3-0.1,0.9-0.4,0.2-0.2c-0.6,0.3-2.1,0.9-3.4,1.3
		c-0.6,0.2-1.2,0.3-1.7,0.4c-0.3,0.1-0.5,0.1-0.8,0.2l-1.1,0.2l-1.7,0.2l-0.7,0.1l-0.6,0c-0.4,0-0.8,0-1.2,0c-1.5-0.1-3-0.3-2.5-0.3
		c0,0,0.2,0,0.3,0l0.4,0c0.4,0,0.7,0,1.3-0.1c0.9-0.1,2-0.4,2.8-0.7c1.5-0.6,2-1.1,2.3-1.3l6-14.1c0,0.6,0,1.3,0.2,2.4
		c0.2,1.1,0.5,2.6,0.7,4.7c0.4,3.7,0.2,6.7,0.3,7.9l0,0.1c0-0.3,0,0,0-0.1l0,0.1l0,0.1l0,0.2l0,0c0,0,0,0,0,0l0,0.1
		c0,0.1,0,0.2,0,0.3c0.1,0.4,0.1,0.9,0.2,1.6c0.2,1.3,0.5,3.1,0.7,5.2l0,1l0,0.5c0,0.7,0,1.2,0,1.7c0,0.9-0.1,1.7-0.1,2.3
		c-0.1,1.3-0.2,2.2-0.2,2.9c0-0.1,0,1.7-0.2,3.4c-0.2,1.5-0.5,2.8-0.9,4c-0.8,2.4-1.6,4.1-2.2,5.4c-1.1,2.3-3.1,6.5-7.3,10.2
		c-0.3,0.2-0.5,0.5-0.8,0.7l-0.4,0.3l-0.5,0.4c-0.1,0.1-0.1,0.1-0.6,0.4c-0.4,0.2-0.8,0.5-1,0.7c-1.2,0.7-2.3,1.3-3.4,1.8
		c-2.2,0.9-4.2,1.5-5.8,1.9l-2,0.5l-1.8,0.4l-1.8,0.4l-0.9,0.2l-0.2,0.1c0.1,0-0.3,0.1,0.2,0l-0.1,0l-0.1,0l-0.2,0.1
		c-0.1,0,0.1,0,0.1,0l0.1,0c0,0,0,0,0,0l-0.1,0l-0.3,0.1l-1.4,0.6c-0.6,0.2-1.4,0.5-2.3,0.9c-0.5,0.2-1,0.3-1.5,0.5l-0.4,0.1l-0.1,0
		l0,0l-0.1,0c-0.6,0.2-1.6,0.6-2.6,1l-1.8,0.7l-2,0.7l-3.2,1.1c-0.4,0.2-0.8,0.3-1.1,0.4l-0.4,0.2c-0.2,0.1-0.1,0.1-0.2,0.1
		l-0.2,0.1c-0.6,0.3-1.4,0.7-2.4,1.3l-1.8,1l-1,0.5l-1.1,0.6c-1.3,0.6-2.3,1.1-2.8,1.4l-0.4,0.2l0,0l0,0c0,0,0.2-0.1,0.1-0.1
		l-0.2,0.1l-0.2,0.1c0,0-0.1,0-0.1,0.1l-0.2,0.1c-0.5,0.4-1.2,0.9-2,1.6l-0.6,0.5l-0.3,0.3l-0.2,0.2l-0.1,0.1l0,0
		c0.1-0.1-0.2,0.2,0.1-0.1l-0.3,0.3c0.1,0,0.1-0.1,0.1-0.2c0,0-0.1,0-0.1,0.1c-0.2,0.2-0.6,0.6-1.3,1.6l-1.4,1.8l-0.5,0.6l-0.3,0.4
		l-0.2,0.3l-0.4,0.5l-0.4,0.4c-1,1-1.3,1.4-0.8,0.6c0.1-0.2,0.3-0.6,0.4-1c0.1-0.2,0.2-0.5,0.2-0.7l0-0.1c0,0.1,0.3-1,0.1-0.5l0,0.1
		l-0.1,0.2l0,0.1l0-0.1l0.1-0.3c0-0.2,0.1-0.4,0.1-0.6l0-0.3l0-0.3c0-0.2,0-0.3,0-0.4c0-0.1,0-0.2,0-0.3c-0.1-0.7-0.1-0.1,0.2,1.3
		l0.2,1.2l0.1,0.7l0.1,0.5c0.1,0.6,0.1,0.9,0.1,1c0,0.3-0.2-0.4-0.9-1.1c-0.2-0.2-0.3-0.4-0.5-0.5c-0.1-0.1-0.2-0.1-0.3-0.3
		c0.1,0.1,0.3,0.3,0.2,0.2c-0.1,0-0.1-0.1-0.1,0c0,0,0,0,0.1,0.1c0.1,0.1,0.1,0.2,0.3,0.3c0.5,0.4,1.3,1,2.3,1.7l1.3,0.9
		c0,0,0.1,0.1,0.2,0.2c0.1,0.1,0.3,0.2,0.5,0.3c0.7,0.4,1.7,0.9,3,1.6l1,0.5l0.3,0.1c0.3,0.2-0.4-0.2-0.3-0.1l0.1,0l0.1,0l0.4,0.2
		l1.6,0.8l3.3,1.6l1.7,0.8c0.9,0.5,1.6,0.8,2.2,1.2c1.2,0.7,2.1,1.2,2.5,1.4l0.2,0.1l0,0c0,0-0.5-0.2-0.2-0.1l0.1,0l0.2,0.1l0.4,0.1
		l1.7,0.6l3.4,1.1l0.4,0.1l0.2,0.1l0.1,0l0.1,0c-0.1,0,0.3,0.1-0.2-0.1l0.9,0.3c0.6,0.2,1.4,0.4,2.3,0.8c0.9,0.3,2,0.8,3.2,1.4
		c1.2,0.7,2.6,1.5,3.9,2.7c1.3,1.2,2.6,2.5,4,4.2c0.7,0.9,1.3,1.9,2,3c0.3,0.6,0.6,1.2,0.9,1.8l0.1,0.2l0.1,0.1l0.1,0.3l0.1,0.2
		c0,0,0.2,0.6,0.4,1c0.5,1.4,0.7,2.5,0.9,3.7c0.2,1.1,0.3,2.2,0.3,3.2c0.1,1,0.1,2,0,2.9l0,0.3l0,0.2l0,0.1l0,0.4l0,0.2l0,0.1l0,0.4
		l-0.1,0.8l-0.1,0.6c-0.1,0.4-0.1,0.7-0.2,1.1c-0.7,2.9-1.7,4.8-2.4,6.2l-0.9,1.8l-0.6,1.3c-0.5,1-1,2.3-1.9,3.9l-0.7,1.2l-0.1,0.2
		l0,0.1c-0.1,0.1,0.1-0.1-0.1,0.2l-0.1,0.2l-0.1,0.2l-0.3,0.4l-0.8,1.3l-0.7,1.1c-1,1.3-1.7,2.3-2,2.9c-0.1,0.2-0.2,0.3-0.2,0.4
		c0.2-0.3,0-0.1,0.1-0.1l0,0L140,351l-0.1,0.2c0,0,0.1,0,0.1,0c-0.1,0.2-0.2,0.6-0.5,1c-0.5,1-1.2,2.5-2.6,4.6
		c-0.2,0.3-0.4,0.5-0.6,0.8L136,358c0.2-0.2-0.3,0.4-0.3,0.3l0,0l-0.1,0.1l-0.1,0.2l-0.4,0.5l-0.8,0.9c-0.9,0.9-1.7,1.7-2.4,2.2
		c-1.3,1.1-1.9,1.8-1.7,1.8c0,0,0.1,0,0.1,0l0,0c0,0,0.1-0.1,0,0l-0.1,0.1l-0.1,0.2l-0.4,0.6l-1.1,1.5c-0.9,1.1-1.9,2.4-3.3,3.8
		c-2.7,2.7-5.1,4.7-6.6,6.2c-6.7,7.1-17.9,7.5-25,0.8s-7.5-17.9-0.8-25c1.6-1.7,3.5-3,5.5-4l0.9-0.4c2.5-1.2,4.2-1.8,5.2-2.2
		c0.5-0.1,1.1-0.5,2-1.2c0.4-0.3,0.9-0.7,1.4-1.1l2.1-1.7c2-1.6,3.4-2.3,4-2.7c0.3-0.2,0.4-0.2,0.4-0.1c0,0,0,0,0,0.1l-0.2,0.2
		c0,0-0.1,0.2-0.1,0.2l0.2-0.2l0.1-0.1l0,0c0.1-0.1-0.4,0.5-0.2,0.2l0,0.1c0,0,0,0.1,0,0.1c0.1,0.1,0.6-0.4,1.3-1.5
		c0.4-0.6,0.9-1.2,1.5-2l0.6-0.8l0.2-0.2l0.1-0.1l0,0c0.1-0.1-0.1,0.1,0.1-0.2c0.3-0.4,0.6-0.7,0.9-1c1.2-1.3,2-2.1,2.6-2.7l0.4-0.4
		l0.1-0.1l0.1-0.1c0,0,0,0,0,0l0,0l0.1-0.2l0.1-0.2c-0.2,0.3,0,0.1-0.1,0.1l0,0l0,0c0.1-0.1,0.2-0.2,0.3-0.4
		c0.4-0.5,0.9-1.4,1.6-2.5l1.1-1.9l0.9-1.4c0.4-0.7,0.6-0.9,0.5-0.4l-0.1,0.7l0,0.2l0-0.1l0-0.2c0,0.1,0-0.4,0,0.3l0,0l0-0.1l0-0.1
		c0-0.3,0.1-0.5,0.1-0.7c0-0.2,0-0.3,0-0.4c0,0,0-0.1,0.1,0.1c0,0.1,0.2,0.4,0.1,0.1l-0.1-0.2c0-0.1,0.2,0.5,0.1,0.2l0,0l0,0
		c0.1,0.1,0.1,0.2,0.1,0.2c0.1,0.1,0.1,0,0,0c-0.1-0.2-0.5-0.6-0.9-1.1c0.4,0.4,0.8,0.6,1,0.7c0.2,0.1,0.1,0-0.1-0.1
		c-0.2-0.1-0.6-0.2-1.1-0.4l-2-0.7l-3.4-1.2l-1.7-0.6l-0.4-0.1l-0.2-0.1l-0.1,0l-0.4-0.2c-0.5-0.2-1.1-0.4-1.5-0.6
		c-1.8-0.8-3.1-1.6-4-2c-0.4-0.2-0.9-0.4-1-0.5l-1.7-0.7l-3.4-1.3l-1.7-0.7l-0.4-0.2l-0.1,0l-0.1,0l-0.4-0.2l-0.2-0.1l-0.7-0.3
		c-0.9-0.4-2.1-0.9-3.6-1.5l-1.1-0.5c-0.4-0.2-0.8-0.4-1.3-0.7l-1.7-1c-1.1-0.6-2.3-1.3-3.8-2.3c-0.4-0.2-0.8-0.5-1.2-0.8l-0.6-0.5
		c-0.2-0.1-0.5-0.4-0.8-0.6l-0.5-0.4c-0.4-0.3-0.6-0.6-1-0.9c-0.6-0.6-1.2-1.3-1.7-1.9c-2.1-2.7-3.2-5.6-3.8-7.7
		c-0.3-1-0.5-2-0.6-2.5l-0.1-0.4l-0.1-0.1l-0.2-0.5c-0.3-1-0.9-2.7-1.2-5.8c0-0.4-0.1-0.8-0.1-1.2c0-0.5,0-0.9,0-1.4l0-0.7l0-0.4
		l0-0.4c0-0.4,0.1-0.7,0.2-1.1l0.2-0.8l0-0.2l0-0.1c-0.1,0.5,0.2-0.7,0.2-0.7l0.1-0.2c0.2-0.5,0.3-1.1,0.5-1.6
		c0.4-1,0.8-1.9,1.2-2.6c0.8-1.5,1.6-2.6,2.3-3.4l1.4-1.8l0.2-0.3c0.1-0.1,0.1-0.2,0.1-0.2l0.1-0.1c0,0,0,0,0,0l0,0l0.1-0.1l0.1-0.2
		c0,0.1,0.2-0.2-0.1,0.1l0,0l0-0.1l0.2-0.3l0.5-0.7c0.7-1.1,1.7-2.6,3.1-4.2c0.4-0.4,0.7-0.8,1.1-1.3l1.1-1.1l1.6-1.4
		c1-0.9,2.2-2,3.6-3.1l0.5-0.4l0.6-0.4l0.5-0.4l0.6-0.4c1-0.6,1.9-1.2,2.7-1.6c1.6-0.9,2.8-1.4,3.7-1.8l0.5-0.2l0.6-0.3l1.4-0.8
		c1.1-0.6,2.4-1.3,4-2.1l1.3-0.6l1.2-0.5c0.8-0.3,1.6-0.6,2.3-0.8c1.4-0.5,2.7-0.9,3.7-1.2l1.5-0.5l1.7-0.5c1.2-0.4,2.6-0.9,4.3-1.3
		l1.1-0.3c0,0,0.1,0,0.2,0c0.2-0.1,0.6-0.2,1.1-0.4l2-0.7c0.4-0.1,0.9-0.3,1.4-0.4l0.8-0.2l0.4-0.1l0.6-0.1l0.5-0.1l0.2,0l0.7-0.1
		l0.9-0.2l1.8-0.3l1.8-0.3l0.9-0.2l0.6-0.1c0.7-0.1,1.1-0.2,1.1-0.2c0,0-0.1,0.1-0.2,0.1c0,0-0.1,0.1-0.3,0.2c-0.2,0.2,0,0,0.1-0.1
		l0.1-0.1c0.2-0.2-0.2,0.2-0.2,0.2l0,0l-0.1,0l-0.1,0.1c-0.5,0.5-0.1,0.4,0.9-1.7c0.5-0.9,0.7-1.4,0.6-1.3c0,0-0.1,0.2-0.1,0.5
		c-0.1,0.5,0,1.1,0-0.2c0-1.7,0.1-3.2,0.2-4.3c0-0.5,0.1-1,0.1-1.3c0-0.2,0-0.3,0-0.2l0-0.4c0-0.2,0,0.2,0,0.1l0,0l0,0l0-0.1
		c0-0.3-0.1-0.9-0.4-2l-0.4-2l-0.1-0.6l-0.1-0.7l-0.1-0.7l0-0.1l0-0.1l0-0.2l0-0.3c-0.4-3.7-0.5-5.5-0.9-6.6
		c-0.1-0.2-0.4-1.1-0.8-2.4c-0.4-1.3-0.8-2.9-1.2-4.7c-1-5.4,1.2-10.6,5.4-13.6l0.6-0.4c1.1-0.8,2.5-1.8,5-2.7
		c1.2-0.5,2.8-0.9,4.2-1c0.8-0.1,1.4-0.1,2-0.1l0.8,0l0.7,0c1.4,0.1,1,0,0.5,0l-0.4,0l-0.2,0l-0.4,0l-0.4,0l-0.2,0c0,0,0,0,0,0l0,0
		l0.4-0.1l0,0l0,0c0.1,0-0.9,0.2-0.5,0.1l0,0l0,0c0,0,0,0,0,0c0,0-0.2,0-0.3,0c-0.3,0-0.9,0.3-0.6,0.1c0.3-0.2,1.7-0.9,3-1.3
		c0.7-0.2,1.2-0.4,1.9-0.6l1.3-0.4l0.1,0l0.3-0.1l0,0l0,0l0,0l-0.1,0c-0.1,0-0.1,0-0.2,0c-0.2,0-0.3,0.1-0.5,0.1
		c-0.3,0.1-0.6,0.2-0.5,0.2c0,0-0.1,0-0.1,0.1l0.2-0.2l0,0l0,0c0,0-0.2,0.2-0.1,0.1l0.1-0.1l0.2-0.1l0.3-0.3l0.8-0.8
		c0.3-0.3,0.1-0.3-0.5,0.5c-0.1,0.2-0.3,0.4-0.5,0.7l-0.1,0.3c-0.1,0.2-0.2,0.3-0.2,0.5c-0.1,0.2-0.1,0.3-0.2,0.5c0,0,0-0.1,0.1-0.1
		l0.1-0.2l0,0c-0.1,0.2,0.2-0.5-0.2,0.5l0,0l-0.1,0.1c-0.1,0.2-0.1,0.4-0.2,0.6c-0.1,0.4-0.2,0.7-0.2,1.1c-0.2,1.3,0,1.8-0.1,1.5
		l-0.1-0.9c-0.1-0.4-0.2-1.4-0.2-1.4c0-0.1,0.1,0.2,0.3,0.5c0.1,0.2,0.2,0.3,0.3,0.4c0,0.1,0.1,0.1,0.1,0.1c0,0,0.1,0.1,0.1,0.1
		l0.1,0.1c0,0-0.1-0.1-0.1-0.1l-0.1-0.2l-0.1-0.1c-0.7-0.8,1,1.1,0.8,0.9l0,0l-0.1-0.1l-0.5-0.6c-0.3-0.4-0.7-0.8-1-1.3
		c-0.7-0.9-1.4-2.1-2-3.1l-0.2-0.4l-0.2-0.3c-0.1-0.2-0.2-0.4-0.2-0.5c-0.1-0.3-0.1-0.3-0.1-0.3c0.1,0.1,0.4,0.5,0.5,0.6
		c0.1,0,0.2,0.2,0.3,0.3c0,0,0.1,0,0,0l-0.1-0.1l-0.1-0.1l-0.1-0.1l-0.1-0.1l0,0c0.1,0.1-0.2-0.2,0.2,0.2l0,0
		c-0.1-0.1-0.1-0.2,0-0.2c0.1,0,0.4,0.2,0.3,0.1c0,0,0,0,0,0l-0.1-0.1c0,0-0.2-0.2-0.3-0.3l-1.1-0.9c-0.4-0.3-0.9-0.7-1.3-1.1
		c-0.4-0.4-0.8-0.7-1.2-1.1l-0.6-0.6l-0.1-0.2l-0.1-0.1l-0.1-0.1l-0.1-0.1l-0.1-0.1l0,0c-0.3-0.3-0.1-0.1-0.2-0.2l0,0l-0.4-0.5
		c-0.5-0.6-1.1-1.3-1.6-2.1c-0.6-0.8-1.2-1.7-1.4-2.3c-0.3-0.5-0.3-0.5-0.2-0.6c0,0,0-0.2,0-0.2c0,0-0.1-0.2-0.2-0.3l-0.1-0.1
		l-0.1-0.1c0,0-0.1-0.1,0.1,0.1l0,0l0,0l-0.5-0.6l-1-1.2l-2-2.3l-2-2.2l-2.1-2.1l-2.2-2.1c-0.3-0.3-0.5-0.5-0.7-0.7l-0.7-0.5
		c-0.3-0.2-0.9-0.7-1.4-1.2c-0.6-0.5-1.1-1-1.6-1.5l-0.6-0.6l0,0l0,0l-0.1-0.1l-0.1,0l-0.1-0.1l-0.2-0.2c-0.3-0.3-0.6-0.5-0.8-0.7
		l-0.9-0.7c-0.4-0.3-1-0.8-1.5-1.2l-1.5-1.3c-0.4-0.4-0.6-0.5-0.9-0.7l-0.7-0.4c-0.3-0.2-0.8-0.6-1.7-1.3c-0.8-0.7-1.6-1.5-2.3-2.1
		c-0.7-0.7-1.2-1.2-1.7-1.7c-0.7-0.7-1.2-1.6-1.6-2.5l-0.8-2c-1.1-2.7-1.6-4.6-2.1-5.7c-0.1-0.3-0.2-0.5-0.3-0.7
		c0-0.1-0.1-0.2-0.1-0.2c0,0,0-0.1-0.1-0.1l0,0.1l0,0.1l-0.1-0.1l-0.1-0.3c-0.1-0.2,0.1,0.2,0.1,0.2l0,0l0-0.1l-0.1-0.2l-0.2-0.4
		l-0.6-1.4c-0.8-1.7-1.4-3-1.9-3.8c-0.1-0.1-0.1-0.1-0.1-0.2c0,0-0.1-0.2-0.1-0.2l-0.1-0.1l0,0c0,0,0.1,0.2,0,0.1l0,0.1
		c0.1,0.3,0.1,0.6,0.1,0.7c0,0.3-0.2,0.2-0.6-0.3c-0.4-0.5-1.1-1.3-2-2.6c-0.2-0.3-0.5-0.7-0.7-1.1c-0.1-0.1-0.3-0.5-0.4-0.8
		l-0.5-0.9l-0.1-0.3l-0.1-0.1c-0.3-0.8-0.1-0.3-0.2-0.4l0,0l0-0.1l-0.4-0.7c-1-1.9-1.6-3.4-2.1-4.3c-0.1-0.2-0.3-0.4-0.4-0.6
		c0,0,0,0,0,0c0,0,0,0,0,0l-0.1-0.1l-0.1-0.3c0,0,0.1,0.2,0,0.1l0,0l0,0l0-0.1l-0.8-1.3c-0.7-1-1.5-2.4-2.5-4.2l-0.1-0.1l-0.2-0.3
		l-0.3-0.6l-0.5-1.1c-0.3-0.7-0.5-1.3-0.7-1.8c-0.4-1.1-0.7-1.9-0.9-2.3l-0.2-0.5c0,0,0-0.1,0,0l0,0l0.1,0.3l0.1,0.1c0,0,0,0,0,0
		l0-0.1l-0.1-0.3l0,0c-0.1-0.1,0.6,1.1,0.3,0.6l0-0.1l-0.1-0.1l-0.1-0.3l-0.5-1c-1.5-2.8-2.8-5.4-4.2-8.6c-0.3-0.7-0.5-1.2-0.6-1.6
		l-0.1-0.3c0-0.1,0,0,0-0.2l-0.1-0.3l0-0.1c-0.1-0.1,0.1,0.1,0.1,0.1l0,0l0.1,0.1c0.1,0.1,0.2,0.2,0.2,0.2c0.3,0.2,0.3,0.1,0.1-0.4
		c-0.2-0.4-0.7-1.1-1.4-2.1l-1.2-1.8l-0.5-0.7l-0.2-0.3L92.8,92l-0.1-0.3c0,0-0.4-0.5-0.2-0.3l0,0l0,0l0-0.1
		C92.4,91,92.2,90.6,92,90c-0.4-1.1-1.3-2.5-2.3-4.3c-1.4-2.4-2.1-4.3-2.5-5.4c-0.1-0.3-0.1-0.5-0.2-0.7c0-0.1,0-0.2,0-0.2
		c0,0,0-0.1,0-0.1l0.1,0l0.1,0l-0.1-0.1L87,79c-0.1-0.2,0.2,0.2,0.1,0.1l0,0l0,0l0,0c0,0,0,0,0-0.1c0-0.1-0.1-0.3-0.2-0.5
		c-0.3-0.7-1.2-1.9-2.6-3.5l-0.6-0.7l-0.2-0.2l-0.1-0.1c0-0.1,0.1,0.1-0.1-0.1l0-0.1l-0.1-0.1c-0.5-0.6-0.9-1.2-1.3-1.8
		c-0.7-1.1-1.2-1.9-1.6-2.6c-0.4-0.7-0.6-1-0.6-1.2c0-0.1,0,0,0-0.1c0,0,0.1,0.1,0.1,0.1l0.1,0.1c0,0,0,0,0,0l0-0.1L79.7,68l0-0.1
		c-0.1-0.1,0.4,0.4,0.2,0.2l0,0l0,0c0,0,0,0,0-0.1c-0.1-0.2-1-0.9-2.6-2.1l-1.3-1c-0.3-0.2-0.7-0.5-0.7-0.6l-0.6-0.5l-1.8-1.6
		c-1.1-1-1.9-1.8-2.7-2.4c-0.6-0.5-1.6-1.2-2.8-1.9l-2-1.2l-1.2-0.8l-1.2-0.8c-1.5-1-2.5-1.7-3.1-2c-0.4-0.2-1.3-0.6-2.5-1L53,50.6
		c-1.1-0.3-2.3-0.7-3.7-1l-2.3-0.6l-2.6-0.7c-0.7-0.2-1.3-0.3-1.8-0.4c-0.2,0-0.5-0.1-0.6-0.1c-0.1,0-0.1,0-0.1,0c0,0-0.1,0-0.2,0
		l-0.3,0l0,0c-7.8-0.7-13.5-7.7-12.8-15.5C29.3,24.7,36.2,19,44,19.7C45.1,19.8,46.3,20.1,47.3,20.5z"/>
</g>
</svg>
