<?xml version="1.0" encoding="utf-8"?>
<!-- Generator: Adobe Illustrator 19.1.0, SVG Export Plug-In . SVG Version: 6.00 Build 0)  -->
<!DOCTYPE svg PUBLIC "-//W3C//DTD SVG 1.1//EN" "http://www.w3.org/Graphics/SVG/1.1/DTD/svg11.dtd">
<svg version="1.1" xmlns="http://www.w3.org/2000/svg" xmlns:xlink="http://www.w3.org/1999/xlink" x="0px" y="0px"
	 viewBox="0 0 52 60" enable-background="new 0 0 52 60" xml:space="preserve">
<g id="Source">
</g>
<g id="Artwork">
	<g>
		<path fill="#3A7492" d="M45.9,19.9c-0.4-1.3-1-2.6-1.7-3.8c-1.5-2.8-3.7-5.2-6.3-7.1c-0.3-0.2-0.6-0.4-0.9-0.6
			c-1.8-1.2-3.8-2.1-6-2.7C29.4,5.3,27.6,5,25.9,5c-0.2,0-0.3,0-0.5,0c-1.3,0-2.6,0.1-3.9,0.3c-7.6,1.3-14,6.5-16.9,13.4
			c0,0,0,0,0,0C3.6,21.3,3,24.1,3,27c0,3,0.6,5.9,1.8,8.5c0.4,0.9,0.9,1.8,1.4,2.6c1.8,3,4.4,5.6,7.4,7.4c0.4,0.2,0.7,0.5,1.1,0.7
			c0.5-0.5,1.2-1.2,1.8-1.3c-1-0.5-2-1.1-3-1.8C8.3,39.5,5,33.5,5,27c0-1.1,0.1-2.1,0.2-3.1c1.2-7.3,6.4-13.3,13.3-15.7
			c0.7-0.2,1.3-0.4,2-0.6c1-0.2,2-0.4,3-0.5C24.1,7,24.7,7,25.4,7c0.2,0,0.3,0,0.5,0C36.6,7.2,45,15.9,45,27c0,5.6-2.2,10.8-6,14.5
			c-1.7,1.6-3.6,2.9-5.8,3.9l-2.7,1.2l0.9,0.9h-1.2l-0.6,0.6l-0.4,0.4h-5.9l1.1-1.2l-3.3-0.7c-0.4-0.1-0.7-0.2-1.1-0.3
			c-0.8-0.2-1.7-0.5-2.5-0.9c0.5,0.7,0.5,1.8,0.5,2.3c0.4,0.1,0.8,0.2,1.2,0.4c0.5,0.2,1,0.3,1.5,0.4L20,49.2l1,1.2h9l1-1h2l1-2.2
			l0,0c1.5-0.7,3-1.5,4.3-2.5c1-0.8,2-1.6,2.8-2.6c1.6-1.8,3-3.8,4-6.1c0.6-1.3,1-2.7,1.3-4.1c0.4-1.6,0.5-3.3,0.5-5
			C47,24.5,46.6,22.1,45.9,19.9z"/>
		<g>
			<polygon fill-rule="evenodd" clip-rule="evenodd" fill="#3A7492" points="25,10.5 26,14.3 29,17.1 31,15.3 27,10.5 			"/>
		</g>
		<g>
			<polygon fill-rule="evenodd" clip-rule="evenodd" fill="#3A7492" points="3,35.5 6.5,42 6.5,39 5,35.5 			"/>
		</g>
		<g>
			<polygon fill-rule="evenodd" clip-rule="evenodd" fill="#3A7492" points="3,37.5 6,42.5 0,42.5 			"/>
		</g>
		<g>
			<polygon fill-rule="evenodd" clip-rule="evenodd" fill="#3A7492" points="25.8,54 23.5,53 23.5,55 24.7,57.1 20.9,59 21.9,60 
				25.7,59 27.5,60 27.5,58 30.5,55 30.5,54 26.6,56 			"/>
		</g>
		<g>
			
				<rect x="39.3" y="41.9" transform="matrix(-0.7071 -0.7071 0.7071 -0.7071 37.1774 103.3994)" fill-rule="evenodd" clip-rule="evenodd" fill="#3A7492" width="1.4" height="4.2"/>
		</g>
		<g>
			<polygon fill-rule="evenodd" clip-rule="evenodd" fill="#3A7492" points="41,44 46,50 40,45 			"/>
		</g>
		<g>
			<polygon fill-rule="evenodd" clip-rule="evenodd" fill="#3A7492" points="49.3,47 46.3,49 46.3,50 			"/>
		</g>
		<g>
			<polygon fill-rule="evenodd" clip-rule="evenodd" fill="#3A7492" points="45.8,50.5 47.8,53.5 46.8,50.5 			"/>
		</g>
		<g>
			<polygon fill-rule="evenodd" clip-rule="evenodd" fill="#3A7492" points="45.3,49 45.3,50 42.3,51 			"/>
		</g>
		<g>
			<polygon fill-rule="evenodd" clip-rule="evenodd" fill="#3A7492" points="11.9,53.6 11.3,54.7 11.6,54.8 11,55 11.6,53.3 			"/>
		</g>
		<g>
			<polygon fill-rule="evenodd" clip-rule="evenodd" fill="#3A7492" points="13.1,54.2 13.6,54.1 13.1,54.3 			"/>
		</g>
		<g>
			<path fill-rule="evenodd" clip-rule="evenodd" fill="#3A7492" d="M14,54l-0.1,0l0.1-0.2C14,53.9,14,54,14,54z"/>
		</g>
		<g>
			<path fill-rule="evenodd" clip-rule="evenodd" fill="#3A7492" d="M16,51c-0.1-0.1-0.2-0.2-0.3-0.2l0.3-0.6C16.1,50.6,16,51,16,51
				z"/>
		</g>
		<g>
			<path fill-rule="evenodd" clip-rule="evenodd" fill="#3A7492" d="M45.9,19.9l5.1-1.6l-2-4.8h-2l-2.8,2.6L44,16.3
				c-0.7-1.6-1.9-3.5-4-5.3c-0.8-0.7-1.7-1.4-2.6-2H38l0.7-1.4l3.8,2.4V1l-8,4l3.2,2H37v1.7c-2-1.3-4.1-2.3-6-2.9V1h-1v1
				c0,0-0.7-1-2-1.6V1h-1V0.1C26.7,0,26.4,0,26,0v1h-1V0c-2,0.2-3,1-3,1V0h-1v2h-1V1h-1v4.8c-3,0.6-6.3,1.8-8.7,3.8L9,7L8,8L6,5L5,6
				L4,4L3,5L2,3L0,5l2,1L1,7l2,1L2,9l3,2l-1,1l3.2,1.6C5.8,16,5,17.5,4.7,18.8c0,0,0,0,0,0c-0.4,1.6-0.2,2.9,0.3,5l0.3,0.1l0.9,0.4
				l0.5,1.9l1.8,1.6L7.8,30l0.1,1.8l2.1,3.9l1.9,1.8l1.6,2.6v8l0.2,0.1l-2.4,5l0.3,0.2L12,52c0,0,1.7-0.3,2,1.9l1.7-3.1
				c-1-0.7-2.5-1-2.7-0.8c0,0,0.7-3,2-2c0.8,0.6,1,1.5,1,2.2l0.7-1.2l1.3-0.4h1l0.2-0.4l0.8-1.8v0l-1.2-2.1l1.8-2.1v-3l5-4v-4
				l-5.8-1.8L19,27.5h-3l-1-2h-4L8.5,26v-3l-1.8-3l2.1-2l1.1,2.2l8.1-7.8h0.5V8l2-1v2l3-1.9l1-0.6L25.8,7L27,7.5h2L31.5,8v2l0.5,2.5
				h-1l2,2h0.5V12l1.2-0.8l1.9,2.2h1.8l2.2,1.9L39,15.8l-2-0.2h-4c0,0-3,3.5-3,6.4c0,2.9,4,4.2,4,4.2l6-2.1l2,2l-2,3l0.8,3l-1.2,2
				L39,41.5l-0.1,1.9l3.9-4.4c0,0,2.1-2.9,3.1-6.5c0-0.2,0.1-0.3,0.2-0.5c0.1-0.6,0.3-1.2,0.4-1.8c0.6-4.4-0.5-7.8-1.4-10.1
				L45.9,19.9z M17,45c0.2,0.1,0.4,0.2,0.5,0.4c0.5,0.7,0.5,1.8,0.5,2.3c0,0.1,0,0.2,0,0.2c-1.2-1.2-4-1-4-1s0.2-0.4,0.6-0.8
				c0.5-0.5,1.2-1.2,1.8-1.3C16.7,44.9,16.8,44.9,17,45z M11.6,27.4l0.8-0.1l1.4-0.9l1.3,2.4l-4.2,3.2l-1.6-2.4L11.6,27.4z
				 M21.5,5.4L21.5,5.4C21.7,5.2,21.8,5,22,4.9V4h1V3h1v0.9C24.6,3.9,25,4,25,4l3.8,1.2c-0.7-0.1-1.4-0.2-2-0.2l0,0c0,0-0.2,0-0.6,0
				H26l0,0h-0.1C24.9,5,23.4,5.1,21.5,5.4z M11.6,54.8l1.1,0.6l0.5-1.1L11.6,54.8z M13.6,54.1l0.2-0.1l0,0L13.6,54.1z"/>
		</g>
		<g>
			<polygon fill-rule="evenodd" clip-rule="evenodd" fill="#3A7492" points="52,36 50,31 49.6,32 46,32 45,36 47.5,37.7 47,39 			
				"/>
		</g>
	</g>
</g>
</svg>
