<?xml version="1.0" encoding="utf-8"?>
<!-- Generator: Adobe Illustrator 19.1.0, SVG Export Plug-In . SVG Version: 6.00 Build 0)  -->
<!DOCTYPE svg PUBLIC "-//W3C//DTD SVG 1.1//EN" "http://www.w3.org/Graphics/SVG/1.1/DTD/svg11.dtd">
<svg version="1.1" id="ball_1_" xmlns="http://www.w3.org/2000/svg" xmlns:xlink="http://www.w3.org/1999/xlink" x="0px" y="0px"
	 viewBox="0 0 167.4 113" enable-background="new 0 0 167.4 113" xml:space="preserve">
<g>
	<path fill="#FFFFFF" d="M166.8,106.2c0.3-1,0.6-2.1,0.6-3.2V10c0-1.1-0.2-2.1-0.5-3l-54.6,46.8L166.8,106.2z"/>
	<path fill="#FFFFFF" d="M83.7,65l14.4-11.7l7.3-5.9l54.8-46.9c-0.9-0.3-1.8-0.5-2.8-0.5H10C9,0,8.1,0.2,7.2,0.5l54.9,47l7.3,5.9
		L83.7,65z"/>
	<path fill="#FFFFFF" d="M157.4,113c0.9,0,1.8-0.2,2.7-0.4L105,59.7L83.7,77L62.4,59.7L7.3,112.6c0.9,0.2,1.8,0.4,2.7,0.4H157.4z"/>
	<path fill="#FFFFFF" d="M0.5,7C0.2,8,0,9,0,10V103c0,1.1,0.2,2.2,0.6,3.2l54.6-52.4L0.5,7z"/>
</g>
</svg>
