<?xml version="1.0" encoding="utf-8"?>
<!-- Generator: Adobe Illustrator 18.1.1, SVG Export Plug-In . SVG Version: 6.00 Build 0)  -->
<!DOCTYPE svg PUBLIC "-//W3C//DTD SVG 1.1//EN" "http://www.w3.org/Graphics/SVG/1.1/DTD/svg11.dtd">
<svg version="1.1" id="ball_1_" xmlns="http://www.w3.org/2000/svg" xmlns:xlink="http://www.w3.org/1999/xlink" x="0px" y="0px"
	 viewBox="0 0 162.9 162.9" enable-background="new 0 0 162.9 162.9" xml:space="preserve">
<path id="White_2_" fill="#FFFFFF" d="M153.9,0H9C4,0,0,4,0,9v144.9c0,5,4,9,9,9h78V99.8H65.8V75.2H87V57.1
	c0-21,12.9-32.5,31.6-32.5c9,0,16.7,0.7,19,1v22l-13,0c-10.2,0-12.2,4.9-12.2,12v15.7h24.3l-3.2,24.6h-21.2v63.1h41.5c5,0,9-4,9-9V9
	C162.9,4,158.9,0,153.9,0z"/>
</svg>
