<?xml version="1.0" encoding="utf-8"?>
<!-- Generator: Adobe Illustrator 18.1.1, SVG Export Plug-In . SVG Version: 6.00 Build 0)  -->
<!DOCTYPE svg PUBLIC "-//W3C//DTD SVG 1.1//EN" "http://www.w3.org/Graphics/SVG/1.1/DTD/svg11.dtd">
<svg version="1.1" id="ball_1_" xmlns="http://www.w3.org/2000/svg" xmlns:xlink="http://www.w3.org/1999/xlink" x="0px" y="0px"
	 viewBox="0 0 194.6 158.2" enable-background="new 0 0 194.6 158.2" xml:space="preserve">
<path fill="#FFFFFF" d="M194.6,18.7c-7.2,3.2-14.9,5.3-22.9,6.3c8.2-4.9,14.6-12.8,17.6-22.1c-7.7,4.6-16.3,7.9-25.4,9.7
	C156.6,4.8,146.2,0,134.8,0c-22.1,0-39.9,17.9-39.9,39.9c0,3.1,0.4,6.2,1,9.1C62.7,47.4,33.2,31.5,13.5,7.3
	c-3.4,5.9-5.4,12.8-5.4,20.1c0,13.9,7,26.1,17.8,33.2c-6.5-0.2-12.7-2-18.1-5c0,0.2,0,0.3,0,0.5c0,19.3,13.8,35.5,32,39.2
	c-3.4,0.9-6.9,1.4-10.5,1.4c-2.6,0-5.1-0.3-7.5-0.7c5.1,15.9,19.8,27.4,37.3,27.7c-13.7,10.7-30.9,17.1-49.6,17.1
	c-3.2,0-6.4-0.2-9.5-0.6c17.7,11.3,38.7,17.9,61.2,17.9c73.5,0,113.6-60.8,113.6-113.6c0-1.7,0-3.5-0.1-5.2
	C182.5,33.8,189.3,26.7,194.6,18.7z"/>
</svg>
